<svg width="100" height="100" viewBox="0 0 100 100" fill="none" xmlns="http://www.w3.org/2000/svg">
<circle cx="50" cy="50" r="50" fill="url(#paint0_linear_862_240)"/>
<path fill-rule="evenodd" clip-rule="evenodd" d="M61.3109 51.4941C66.2327 49.7734 70.8545 46.8523 74.3958 43.6711C74.5359 43.5511 74.6159 43.371 74.6359 43.1709C74.6559 42.9909 74.5959 42.7908 74.4759 42.6507C74.3558 42.4907 74.1957 42.3906 74.0157 42.3706C73.8356 42.3306 73.6355 42.3706 73.4755 42.4707C69.9341 44.5915 66.0127 46.2721 61.9911 47.2925C62.1112 45.7719 62.0912 44.2313 61.8911 42.6908C61.4309 39.2895 60.2905 35.9082 57.8896 33.3272C55.2286 30.3861 50.8669 29.2857 47.1055 30.4661C42.5838 31.8066 38.8224 35.8882 38.6823 40.75C38.5023 47.1524 44.4645 52.3544 50.5268 52.9546C51.2271 53.0347 51.9473 53.0747 52.6676 53.0747C51.5472 55.5156 50.1066 57.8565 48.5461 60.0173C43.7843 52.1543 36.6215 45.7119 28.1383 42.1906C26.1376 41.3302 24.0968 40.67 21.996 40.2098C21.2757 40.0698 20.5955 39.9297 19.8552 39.8497C19.6751 39.8297 19.4951 39.8897 19.335 39.9897C19.175 40.0898 19.0749 40.2498 19.0349 40.4299C18.9749 40.61 18.9949 40.79 19.0749 40.9501C19.1549 41.1102 19.295 41.2502 19.4551 41.3102C24.1969 43.6511 28.5585 46.7123 32.3599 50.3937C37.2818 55.1355 41.1633 60.8576 43.7642 67.16C44.9047 69.881 48.486 70.8814 50.8869 69.1208C51.2471 68.8406 51.5872 68.5405 51.8873 68.2004C54.0281 65.8795 55.9288 63.3186 57.5295 60.5775C59.1701 57.8165 60.5106 54.7153 61.3109 51.4941ZM50.6669 63.9588L50.7269 64.0788C50.7069 64.0388 50.6869 63.9988 50.6669 63.9588ZM54.3282 48.2529C54.7084 46.6523 54.8885 45.0116 54.8284 43.371C54.6684 40.4299 53.5279 36.2683 50.0266 36.2083C47.0055 36.1683 44.2444 39.0294 45.1048 42.0505C46.3852 46.4722 50.2067 48.0728 54.3282 48.2529Z" fill="url(#paint1_linear_862_240)"/>
<path d="M76.7166 40.67C77.0167 42.1106 77.4969 43.0309 78.8975 42.8309C80.0979 42.6708 81.0783 41.4703 81.0783 40.2699C81.0783 39.0694 80.0979 38.3091 78.8975 38.4892C77.3969 38.7293 76.4765 39.4896 76.7166 40.67Z" fill="url(#paint2_linear_862_240)"/>
<defs>
<linearGradient id="paint0_linear_862_240" x1="0" y1="0" x2="100" y2="100" gradientUnits="userSpaceOnUse">
<stop stop-color="#C5F0F3"/>
<stop offset="1" stop-color="#F0FED4"/>
</linearGradient>
<linearGradient id="paint1_linear_862_240" x1="19.2399" y1="29.6262" x2="81.2633" y2="69.6414" gradientUnits="userSpaceOnUse">
<stop stop-color="#44BCC3"/>
<stop offset="1" stop-color="#236D66"/>
</linearGradient>
<linearGradient id="paint2_linear_862_240" x1="31.76" y1="10.22" x2="93.7835" y2="50.235" gradientUnits="userSpaceOnUse">
<stop stop-color="#44BCC3"/>
<stop offset="1" stop-color="#236D66"/>
</linearGradient>
</defs>
</svg>
