<svg width="102" height="100" viewBox="0 0 102 100" fill="none" xmlns="http://www.w3.org/2000/svg">
<path d="M50.1989 100C21.6376 99.9165 -0.137325 76.3696 0.000652063 49.5113C0.14226 22.0212 23.3623 -0.294795 51.1284 0.0029451C78.2699 0.297054 101.327 22.475 101.178 50.1758C101.036 77.546 78.1828 99.9891 50.1989 100ZM12.2189 77.1103C15.2362 71.7292 18.112 66.6023 20.9841 61.4753C23.4313 57.1073 25.8859 52.7429 28.315 48.3675C28.8742 47.3618 29.3426 47.0604 30.1886 48.1606C31.8588 50.3246 33.6126 52.427 35.37 54.522C36.0308 55.3063 36.0744 55.9817 35.5297 56.8822C33.6852 59.9286 31.9569 63.0439 30.1123 66.0903C28.1371 69.3509 26.4705 72.8149 24.0559 75.7923C22.3311 77.9164 20.5011 79.9497 18.7365 82.0376C18.3952 82.4442 17.738 82.7783 18.0502 83.4536C18.3589 84.1254 18.9798 84.365 19.7168 84.3578C21.0603 84.3469 22.4001 84.3577 23.7436 84.3759C24.1394 84.3832 24.6332 84.2379 24.8619 84.6845C25.1052 85.1566 24.6368 85.4253 24.4081 85.7412C23.0029 87.6946 22.9992 87.691 24.9672 89.0599C25.2214 89.2378 25.4756 89.4157 25.7406 89.5755C34.2335 94.7169 43.3908 97.1351 53.3542 96.4961C61.6873 95.9623 69.3377 93.4788 76.2765 88.8456C78.328 87.4768 78.1864 87.5203 76.8974 85.8283C76.0914 84.768 76.2874 84.4304 77.6236 84.3832C78.9126 84.336 80.2053 84.3723 81.4942 84.3396C82.2422 84.3214 82.7433 83.8458 83.0737 83.243C83.3569 82.7274 82.9067 82.3861 82.5944 82.0521C78.23 77.3463 74.3666 72.2848 71.3021 66.6132C69.512 63.3017 67.5077 60.1028 65.5688 56.8713C65.0496 56.0071 65.0278 55.3208 65.7322 54.5111C67.5586 52.4088 69.3196 50.2484 71.077 48.0843C71.7487 47.2564 72.2353 47.1911 72.7799 48.2078C73.7022 49.9361 74.6862 51.6318 75.652 53.3383C79.6642 60.4369 83.6874 67.5282 87.6814 74.6376C88.9704 76.9324 88.6436 77.5896 90.47 74.7756C101.127 58.3346 100.005 35.975 87.5108 20.9246C76.636 7.82406 62.5188 2.06897 45.5476 3.61213C33.6743 4.69417 23.5947 9.7267 15.6683 18.5681C4.17627 31.3818 0.759524 46.2579 5.30914 62.9059C6.6998 67.9857 9.10714 72.5716 12.2189 77.1103Z" fill="black"/>
<path d="M32.7916 37.8489C35.061 37.8489 37.334 37.8889 39.6033 37.8308C40.6273 37.8054 41.3208 38.1358 41.9562 38.9637C47.0759 45.6338 52.2319 52.2748 57.3806 58.9195C57.7292 59.3661 58.1141 59.7873 58.4408 60.2484C58.8657 60.8475 59.3486 61.138 59.9586 60.5462C60.6666 59.8599 61.0515 60.2448 61.5598 60.8403C65.6374 65.5642 69.7477 70.2554 73.8398 74.9611C75.8368 77.2559 77.8194 79.5652 79.7946 81.8781C80.0125 82.1359 80.4228 82.372 80.2013 82.7895C80.0342 83.0982 79.653 83.0001 79.3553 83.0219C75.4919 83.3124 71.6213 83.1018 67.7543 83.1599C67.0099 83.1708 66.5415 82.7314 66.1022 82.1759C59.6717 74.0461 52.9036 66.1814 46.8726 57.7394C46.5748 57.3219 46.2444 56.9188 45.8886 56.5448C44.8138 55.4047 43.3215 55.3248 42.4282 56.5811C41.5169 57.8629 41.0049 57.5579 40.1625 56.5557C36.7094 52.4527 33.2056 48.3897 29.698 44.3339C28.213 42.6201 26.6662 40.9571 25.1557 39.265C24.8652 38.9382 24.2806 38.6695 24.5493 38.1431C24.7962 37.6565 25.3844 37.8744 25.8238 37.8707C28.144 37.8489 30.4678 37.8598 32.788 37.8598C32.7916 37.8526 32.7916 37.8489 32.7916 37.8489Z" fill="black"/>
<path d="M66.0662 35.5832C66.1606 36.008 66.0081 36.2077 65.7322 36.2767C65.4344 36.3493 65.1149 36.4292 64.8172 36.3893C62.221 36.048 60.0787 36.6362 58.6263 39.0544C57.9837 40.1255 57.3809 39.6717 56.8363 38.7567C55.0498 35.7393 53.169 32.7801 51.3862 29.7591C50.6927 28.579 50.2969 28.8695 49.7413 29.839C48.2309 32.4823 46.6841 35.1003 45.1336 37.7182C44.3021 39.1234 44.0407 39.1742 43.0967 37.9034C42.287 36.8105 41.3393 36.2731 39.9522 36.3929C38.8266 36.4909 37.6829 36.4292 36.55 36.4038C34.887 36.3711 34.7599 36.1823 35.5479 34.7699C37.6865 30.9428 39.8578 27.1376 42.011 23.3178C44.4946 18.917 46.9709 14.509 49.4581 10.1119C49.7305 9.63262 49.8285 8.84833 50.424 8.81202C51.0449 8.77208 51.2083 9.55274 51.4769 10.0211C55.1951 16.5097 58.895 23.0091 62.6023 29.5013C63.6226 31.2914 64.661 33.0742 65.685 34.8643C65.8411 35.133 65.9754 35.4125 66.0662 35.5832Z" fill="black"/>
<path d="M28.3583 82.9601C26.2451 82.9601 24.1318 82.9674 22.0186 82.9529C21.6809 82.9492 21.2416 83.0654 21.0564 82.6588C20.8712 82.2521 21.2379 81.9907 21.4631 81.7365C23.9612 78.9297 26.4411 76.1012 28.9864 73.3344C32.9624 69.0136 36.9927 64.7399 40.9868 60.4372C42.3521 58.963 44.7776 58.8214 46.1973 60.3065C47.6569 61.8351 48.8297 63.6034 50.0098 65.3571C50.6125 66.254 49.9916 66.8132 49.4942 67.3796C46.5132 70.7927 43.5067 74.1841 40.5184 77.5935C39.2294 79.0641 37.9658 80.5564 36.7059 82.0524C36.1322 82.735 35.4387 83.011 34.5382 82.9928C32.4794 82.9492 30.4171 82.9783 28.3547 82.9783C28.3583 82.9746 28.3583 82.9674 28.3583 82.9601Z" fill="black"/>
<path d="M59.1235 57.1871C57.9543 57.2343 57.0647 56.6933 56.5782 55.7166C55.6704 53.9011 54.4141 52.3289 53.2377 50.7059C52.5914 49.8163 52.6821 49.2172 53.3575 48.422C56.0553 45.234 58.6987 42.0024 61.3602 38.7817C61.8431 38.2008 62.3914 37.8341 63.2011 37.8341C67.3767 37.8341 71.5559 37.7905 75.7316 37.7796C76.0765 37.7796 76.5449 37.6489 76.741 38.0011C76.9951 38.455 76.5449 38.7527 76.2871 39.0468C71.3453 44.6567 66.4 50.2593 61.4473 55.8582C60.8264 56.5554 60.1656 57.2271 59.1235 57.1871Z" fill="black"/>
</svg>
