<svg width="1005" height="276" viewBox="0 0 1005 276" fill="none" xmlns="http://www.w3.org/2000/svg">
<path d="M431.471 62.6081C463.421 62.9881 454.291 56.9781 470.031 85.2581C489.641 120.478 508.421 156.168 527.521 191.678C531.771 199.578 531.351 200.358 522.681 200.438C513.481 200.528 504.271 200.178 495.081 200.478C489.451 200.658 485.761 198.498 483.561 193.458C483.341 192.968 482.901 192.548 482.781 192.038C477.951 171.598 464.051 167.908 445.151 169.418C425.521 170.978 405.651 170.088 385.911 169.618C379.071 169.458 374.911 171.668 371.491 177.448C367.101 184.888 361.941 191.878 357.051 199.018C355.691 201.008 354.381 203.478 351.641 203.518C340.821 203.678 329.991 203.948 319.191 203.478C314.481 203.278 316.471 199.848 317.921 197.578C325.181 186.168 332.421 174.738 339.861 163.438C360.831 131.568 381.931 99.7881 402.861 67.8981C405.341 64.1281 408.091 62.2081 412.811 62.5181C419.001 62.9081 425.241 62.6081 431.471 62.6081ZM428.101 91.0981C417.381 107.368 407.381 122.658 397.241 137.878C394.381 142.178 395.771 143.468 400.391 143.458C417.361 143.428 434.341 143.378 451.311 143.608C456.791 143.688 456.521 141.388 454.501 137.788C445.941 122.578 438.341 106.808 428.101 91.0981Z" fill="black"/>
<path d="M731.211 200.658C716.591 200.338 702.511 201.598 688.561 199.128C667.551 195.408 660.851 188.448 659.011 167.088C657.781 152.848 657.061 138.598 659.991 124.328C662.681 111.218 671.061 104.568 683.141 101.128C690.781 98.9478 698.661 98.7378 706.451 98.5378C730.731 97.9078 755.091 96.3278 779.211 100.698C797.631 104.038 804.741 111.588 806.721 130.298C808.171 144.038 807.991 157.858 806.091 171.538C803.971 186.848 796.671 194.188 781.491 197.878C764.681 201.968 747.601 200.118 731.211 200.658ZM730.361 176.928C734.411 176.928 738.471 177.078 742.511 176.888C746.811 176.678 751.111 176.188 755.401 175.748C765.531 174.698 769.111 171.068 769.531 160.718C769.831 153.438 769.741 146.138 769.551 138.858C769.271 127.738 766.361 124.028 755.431 123.068C739.831 121.708 724.131 122.028 708.511 122.898C699.901 123.378 696.461 127.238 696.151 135.898C695.821 145.058 695.981 154.248 696.191 163.428C696.331 169.918 699.761 173.688 706.231 175.278C714.211 177.238 722.281 176.888 730.361 176.928Z" fill="black"/>
<path d="M539.391 132.129C539.391 112.679 539.551 93.2186 539.301 73.7686C539.221 67.1386 541.641 64.4785 548.351 64.8785C555.351 65.2985 562.411 65.2785 569.411 64.8685C576.061 64.4785 578.631 67.0286 578.521 73.7086C578.261 89.3786 578.461 105.049 578.471 120.719C578.491 143.959 578.261 167.199 578.651 190.429C578.781 198.269 575.941 201.189 568.251 200.589C562.341 200.129 556.371 200.529 550.421 200.489C539.541 200.419 539.311 200.189 539.301 188.869C539.281 169.959 539.291 151.039 539.291 132.129C539.331 132.129 539.361 132.129 539.391 132.129Z" fill="black"/>
<path d="M599.07 131.998C599.07 112.268 599.28 92.5378 598.95 72.8178C598.85 66.6678 601.08 64.6578 606.95 64.8978C614.5 65.2078 622.08 65.1278 629.64 64.9178C635.08 64.7678 637.47 66.8578 637.46 72.4878C637.38 112.748 637.431 153.018 637.561 193.278C637.581 198.478 635.44 200.658 630.33 200.558C622.77 200.408 615.191 200.258 607.631 200.538C601.401 200.768 598.95 198.328 599.02 191.988C599.26 171.998 599.111 151.998 599.111 131.998C599.101 131.998 599.09 131.998 599.07 131.998Z" fill="black"/>
<path d="M975.241 213.148C953.801 218.088 938.401 208.938 925.201 192.848C918.741 184.968 910.621 178.388 902.951 171.568C898.301 167.438 897.741 164.028 902.461 159.558C909.131 153.238 915.541 146.618 921.851 139.928C925.511 136.048 928.541 135.458 932.691 139.518C955.081 161.498 977.671 183.268 1000.11 205.198C1001.87 206.918 1005.37 208.398 1003.86 211.568C1002.67 214.088 999.491 213.058 997.161 213.098C989.851 213.218 982.551 213.148 975.241 213.148Z" fill="black"/>
<path d="M820.531 64.9479C825.401 64.9579 830.251 64.5179 835.071 63.8779C849.091 62.0179 861.121 70.5279 872.301 83.2879C885.631 98.4979 900.551 112.308 914.761 126.748C916.041 128.048 918.111 129.248 917.301 131.398C916.461 133.638 914.071 132.938 912.301 132.938C898.521 132.908 884.751 132.648 870.981 132.778C866.721 132.818 863.891 130.818 861.091 128.148C841.151 109.148 821.171 90.1778 801.231 71.1778C799.911 69.9278 797.651 68.8279 798.311 66.7279C799.181 63.9679 801.951 65.0479 803.941 65.0179C809.101 64.9279 814.271 64.9379 820.531 64.9479Z" fill="black"/>
<path d="M821.591 212.108C815.381 212.108 809.171 212.188 802.961 212.068C800.961 212.028 798.241 212.888 797.421 210.098C796.811 208.048 798.721 206.708 800.011 205.388C808.691 196.508 817.401 187.658 826.111 178.798C838.411 166.288 850.721 153.788 862.991 141.248C864.921 139.278 866.871 137.228 869.751 137.188C879.731 137.058 889.721 136.928 899.701 137.208C904.721 137.348 905.351 140.098 902.931 144.308C888.451 169.418 867.381 188.938 847.691 209.618C845.651 211.768 843.001 212.058 840.231 212.048C834.021 212.028 827.811 212.038 821.601 212.038C821.591 212.068 821.591 212.088 821.591 212.108Z" fill="black"/>
<path d="M962.831 65.1781C969.041 65.1781 975.251 65.0681 981.461 65.2381C983.711 65.2981 986.921 64.0381 987.921 66.9381C988.801 69.5081 986.031 71.2081 984.411 72.8281C968.781 88.4981 953.251 104.278 937.291 119.608C926.571 129.908 926.281 129.618 915.221 118.948C911.921 115.758 908.901 112.198 905.261 109.458C899.731 105.278 900.951 101.948 905.321 97.8081C913.741 89.8181 922.171 81.7981 929.981 73.2181C935.541 67.1181 941.621 64.1381 949.891 65.1181C954.151 65.6281 958.521 65.2081 962.841 65.2081C962.831 65.1981 962.831 65.1881 962.831 65.1781Z" fill="black"/>
<path d="M138.252 275.408C59.5918 275.178 -0.378204 210.328 0.00179583 136.358C0.391796 60.6482 64.3418 -0.811889 140.812 0.00811105C215.562 0.818111 279.062 61.8981 278.652 138.188C278.262 213.568 215.322 275.378 138.252 275.408ZM33.6518 212.368C41.9618 197.548 49.8818 183.428 57.7918 169.308C64.5318 157.278 71.2918 145.258 77.9818 133.208C79.5218 130.438 80.8118 129.608 83.1418 132.638C87.7418 138.598 92.5718 144.388 97.4118 150.158C99.2318 152.318 99.3518 154.178 97.8518 156.658C92.7718 165.048 88.0118 173.628 82.9318 182.018C77.4918 190.998 72.9018 200.538 66.2518 208.738C61.5018 214.588 56.4618 220.188 51.6018 225.938C50.6618 227.058 48.8518 227.978 49.7118 229.838C50.5618 231.688 52.2718 232.348 54.3018 232.328C58.0018 232.298 61.6918 232.328 65.3918 232.378C66.4818 232.398 67.8418 231.998 68.4718 233.228C69.1418 234.528 67.8518 235.268 67.2218 236.138C63.3518 241.518 63.3418 241.508 68.7618 245.278C69.4618 245.768 70.1618 246.258 70.8918 246.698C94.2818 260.858 119.502 267.518 146.942 265.758C169.892 264.288 190.962 257.448 210.072 244.688C215.722 240.918 215.332 241.038 211.782 236.378C209.562 233.458 210.102 232.528 213.782 232.398C217.332 232.268 220.892 232.368 224.442 232.278C226.502 232.228 227.882 230.918 228.792 229.258C229.572 227.838 228.332 226.898 227.472 225.978C215.452 213.018 204.812 199.078 196.372 183.458C191.442 174.338 185.922 165.528 180.582 156.628C179.152 154.248 179.092 152.358 181.032 150.128C186.062 144.338 190.912 138.388 195.752 132.428C197.602 130.148 198.942 129.968 200.442 132.768C202.982 137.528 205.692 142.198 208.352 146.898C219.402 166.448 230.482 185.978 241.482 205.558C245.032 211.878 244.132 213.688 249.162 205.938C278.512 160.658 275.422 99.0781 241.012 57.6281C211.062 21.5481 172.182 5.69811 125.442 9.94811C92.7418 12.9281 64.9818 26.7881 43.1518 51.1381C11.5018 86.4281 2.09179 127.398 14.6218 173.248C18.4518 187.238 25.0818 199.868 33.6518 212.368Z" fill="black"/>
<path d="M90.3115 104.238C96.5615 104.238 102.821 104.348 109.071 104.188C111.891 104.118 113.801 105.028 115.551 107.308C129.651 125.678 143.851 143.968 158.031 162.268C158.991 163.498 160.051 164.658 160.951 165.928C162.121 167.578 163.451 168.378 165.131 166.748C167.081 164.858 168.141 165.918 169.541 167.558C180.771 180.568 192.091 193.488 203.361 206.448C208.861 212.768 214.321 219.128 219.761 225.498C220.361 226.208 221.491 226.858 220.881 228.008C220.421 228.858 219.371 228.588 218.551 228.648C207.911 229.448 197.251 228.868 186.601 229.028C184.551 229.058 183.261 227.848 182.051 226.318C164.341 203.928 145.701 182.268 129.091 159.018C128.271 157.868 127.361 156.758 126.381 155.728C123.421 152.588 119.311 152.368 116.851 155.828C114.341 159.358 112.931 158.518 110.611 155.758C101.101 144.458 91.4515 133.268 81.7915 122.098C77.7015 117.378 73.4415 112.798 69.2815 108.138C68.4815 107.238 66.8715 106.498 67.6115 105.048C68.2915 103.708 69.9115 104.308 71.1215 104.298C77.5115 104.238 83.9115 104.268 90.3015 104.268C90.3115 104.248 90.3115 104.238 90.3115 104.238Z" fill="black"/>
<path d="M181.952 97.9977C182.212 99.1677 181.792 99.7177 181.032 99.9077C180.212 100.108 179.332 100.328 178.512 100.218C171.362 99.2777 165.462 100.898 161.462 107.558C159.692 110.508 158.032 109.258 156.532 106.738C151.612 98.4277 146.432 90.2777 141.522 81.9577C139.612 78.7077 138.522 79.5077 136.992 82.1777C132.832 89.4577 128.572 96.6677 124.302 103.878C122.012 107.748 121.292 107.888 118.692 104.388C116.462 101.378 113.852 99.8978 110.032 100.228C106.932 100.498 103.782 100.328 100.662 100.258C96.0816 100.168 95.7316 99.6477 97.9016 95.7577C103.792 85.2177 109.772 74.7377 115.702 64.2177C122.542 52.0977 129.362 39.9577 136.212 27.8477C136.962 26.5277 137.232 24.3677 138.872 24.2677C140.582 24.1577 141.032 26.3077 141.772 27.5977C152.012 45.4677 162.202 63.3677 172.412 81.2477C175.222 86.1777 178.082 91.0877 180.902 96.0177C181.332 96.7577 181.702 97.5277 181.952 97.9977Z" fill="black"/>
<path d="M78.1017 228.478C72.2817 228.478 66.4617 228.498 60.6417 228.458C59.7117 228.448 58.5017 228.768 57.9917 227.648C57.4817 226.528 58.4917 225.808 59.1117 225.108C65.9917 217.378 72.8217 209.588 79.8317 201.968C90.7817 190.068 101.882 178.298 112.882 166.448C116.642 162.388 123.322 161.998 127.232 166.088C131.252 170.298 134.482 175.168 137.732 179.998C139.392 182.468 137.682 184.008 136.312 185.568C128.102 194.968 119.822 204.308 111.592 213.698C108.042 217.748 104.562 221.858 101.092 225.978C99.5117 227.858 97.6017 228.618 95.1217 228.568C89.4517 228.448 83.7717 228.528 78.0917 228.528C78.1017 228.518 78.1017 228.498 78.1017 228.478Z" fill="black"/>
<path d="M162.832 157.498C159.612 157.628 157.162 156.138 155.822 153.448C153.322 148.448 149.862 144.118 146.622 139.648C144.842 137.198 145.092 135.548 146.952 133.358C154.382 124.578 161.662 115.678 168.992 106.808C170.322 105.208 171.832 104.198 174.062 104.198C185.562 104.198 197.072 104.078 208.572 104.048C209.522 104.048 210.812 103.688 211.352 104.658C212.052 105.908 210.812 106.728 210.102 107.538C196.492 122.988 182.872 138.418 169.232 153.838C167.522 155.758 165.702 157.608 162.832 157.498Z" fill="black"/>
</svg>
